<?xml version="1.0" encoding="UTF-8"?>
<svg width="165.91" height="165.91" version="1.1" viewBox="0 0 165.91 165.91" xmlns="http://www.w3.org/2000/svg">
    <circle cx="82.957" cy="82.957" r="72.957" fill="#fff" stroke="#1ed760" stroke-width="20"/>
    <g transform="matrix(1.8242 0 0 1.8242 -1.2252 -16.023)" aria-label="*">
        <path d="m33.45 81.779-7.68-5.3334 5.76-8.32q3.3067-4.6934 10.667-10.773l-0.32-0.74667q-9.3867-0.74667-14.613-2.6667l-9.3867-3.4134 3.2-8.8534 9.3867 3.4134q5.6534 2.0267 13.12 7.5734l0.53334-0.42666q-2.6667-9.92-2.6667-15.36v-10.133h9.3867v10.133q0 6.08-2.7733 15.36l0.53333 0.42666q7.4667-5.5467 13.12-7.5734l9.4934-3.4134 3.2 8.8534-9.4934 3.4134q-5.3334 1.92-14.507 2.6667l-0.42667 0.85334q7.1467 5.6534 10.56 10.667l5.8667 8.32-7.68 5.3334-5.8667-8.32q-1.8133-2.6667-3.52-6.4-1.7067-3.84-2.88-7.2534h-0.74667q-3.3067 9.28-6.5067 13.653z"/>
    </g>
    <path d="m133.27 144.23-102.77-118.57" fill="none" stroke="#1ed760" stroke-width="18"/>
    <text transform="translate(-.52882 -.94839)" fill="#000000" font-family="sans-serif" font-size="40px"
          letter-spacing="0px" word-spacing="0px" style="line-height:1.25;shape-inside:url(#rect58014);white-space:pre"
          xml:space="preserve"/>
</svg>
